<svg width="25" height="30" viewBox="0 0 25 30" fill="none" xmlns="http://www.w3.org/2000/svg">
<path d="M2.01562 24.125C2.01562 26.1922 3.24609 27.875 4.75 27.875C5.08795 27.8689 5.42125 27.7841 5.72946 27.6255C6.03768 27.467 6.31431 27.2382 6.54238 26.9531C6.59212 26.8938 6.65158 26.8463 6.71739 26.8133C6.78319 26.7802 6.85404 26.7623 6.9259 26.7606C6.99775 26.7589 7.06921 26.7733 7.13618 26.8031C7.20315 26.8329 7.26432 26.8775 7.31621 26.9344C7.3681 26.9912 7.40968 27.0592 7.43859 27.1344C7.46749 27.2096 7.48316 27.2906 7.48468 27.3727C7.4862 27.4548 7.47356 27.5365 7.44747 27.613C7.42138 27.6895 7.38235 27.7595 7.33262 27.8188C7.00251 28.2258 6.60321 28.5516 6.15915 28.7762C5.71508 29.0008 5.23559 29.1195 4.75 29.125C2.63906 29.125 0.921875 26.8812 0.921875 24.125C0.921875 21.3688 2.63906 19.125 4.75 19.125C5.23559 19.1305 5.71508 19.2492 6.15915 19.4738C6.60321 19.6984 7.00251 20.0242 7.33262 20.4312C7.38235 20.4905 7.42138 20.5605 7.44747 20.637C7.47356 20.7135 7.4862 20.7952 7.48468 20.8773C7.48316 20.9594 7.46749 21.0404 7.43859 21.1156C7.40968 21.1908 7.3681 21.2588 7.31621 21.3156C7.26432 21.3725 7.20315 21.4171 7.13618 21.4469C7.06921 21.4767 6.99775 21.4911 6.9259 21.4894C6.85404 21.4877 6.78319 21.4698 6.71739 21.4367C6.65158 21.4037 6.59212 21.3562 6.54238 21.2969C6.31431 21.0118 6.03768 20.783 5.72946 20.6245C5.42125 20.4659 5.08795 20.3811 4.75 20.375C3.24609 20.375 2.01562 22.0578 2.01562 24.125ZM13.2936 23.3672C11.8539 22.8984 11.2318 22.6 11.3221 21.7922C11.3341 21.5896 11.3866 21.3929 11.4755 21.2172C11.5643 21.0414 11.6872 20.8912 11.8348 20.7781C12.6893 20.1172 14.401 20.4281 14.9875 20.6047C15.1257 20.6392 15.2702 20.6111 15.3907 20.5264C15.5111 20.4417 15.5982 20.3069 15.6336 20.1504C15.669 19.9939 15.6499 19.8278 15.5804 19.687C15.511 19.5462 15.3964 19.4417 15.2609 19.3953C14.7911 19.2643 14.3121 19.1801 13.8295 19.1437C12.7193 19.0594 11.8416 19.2609 11.2182 19.7406C10.9423 19.9547 10.7108 20.2354 10.5403 20.5629C10.3697 20.8904 10.2642 21.2567 10.2311 21.6359C10.015 23.5875 11.6611 24.1359 12.9846 24.5687C14.524 25.0766 15.2363 25.4266 15.1228 26.4344C15.1093 26.6449 15.0541 26.8492 14.9615 27.0319C14.8689 27.2145 14.7413 27.3709 14.5883 27.4891C13.7311 28.1406 12.0439 27.8094 11.467 27.6266C11.397 27.601 11.3231 27.5918 11.2499 27.5996C11.1767 27.6074 11.1056 27.6319 11.0409 27.6718C10.9762 27.7117 10.9192 27.7661 10.8733 27.8317C10.8274 27.8974 10.7936 27.9729 10.7738 28.0538C10.754 28.1348 10.7488 28.2194 10.7583 28.3027C10.7678 28.386 10.7919 28.4663 10.8291 28.5387C10.8664 28.6112 10.9161 28.6743 10.9752 28.7242C11.0343 28.7742 11.1016 28.8101 11.173 28.8297C11.8074 29.0197 12.46 29.1189 13.1158 29.125C13.824 29.125 14.5965 28.9906 15.1967 28.5359C15.4803 28.318 15.7185 28.0312 15.894 27.696C16.0696 27.3609 16.1784 26.9856 16.2125 26.5969C16.4586 24.4125 14.6293 23.8125 13.2936 23.3672ZM24.6207 19.1609C24.4842 19.1053 24.3339 19.1139 24.2029 19.1848C24.0719 19.2557 23.9709 19.3831 23.9221 19.5391L21.7031 26.6422L19.4842 19.5391C19.4599 19.4617 19.4226 19.3906 19.3743 19.3297C19.326 19.2688 19.2677 19.2194 19.2027 19.1843C19.1377 19.1492 19.0673 19.1291 18.9955 19.1251C18.9237 19.121 18.8519 19.1332 18.7842 19.1609C18.7165 19.1886 18.6542 19.2313 18.601 19.2865C18.5477 19.3417 18.5045 19.4083 18.4738 19.4826C18.443 19.5569 18.4254 19.6374 18.4219 19.7195C18.4184 19.8015 18.4291 19.8836 18.4533 19.9609L21.1877 28.7109C21.2255 28.8327 21.2953 28.938 21.3876 29.0125C21.4799 29.087 21.5901 29.1271 21.7031 29.1271C21.8161 29.1271 21.9264 29.087 22.0187 29.0125C22.111 28.938 22.1808 28.8327 22.2186 28.7109L24.9529 19.9609C24.9772 19.8835 24.9879 19.8013 24.9843 19.7192C24.9808 19.637 24.963 19.5564 24.9322 19.4821C24.9013 19.4078 24.8579 19.3411 24.8045 19.286C24.751 19.2309 24.6886 19.1884 24.6207 19.1609ZM24.9844 9.75V13.5C24.9844 13.6658 24.9268 13.8247 24.8242 13.9419C24.7216 14.0592 24.5825 14.125 24.4375 14.125C24.2925 14.125 24.1534 14.0592 24.0508 13.9419C23.9482 13.8247 23.8906 13.6658 23.8906 13.5V10.375H16.7812C16.6362 10.375 16.4971 10.3092 16.3945 10.1919C16.292 10.0747 16.2344 9.91576 16.2344 9.75V1.625H3.65625C3.51121 1.625 3.37211 1.69085 3.26955 1.80806C3.16699 1.92527 3.10937 2.08424 3.10937 2.25V13.5C3.10937 13.6658 3.05176 13.8247 2.9492 13.9419C2.84664 14.0592 2.70754 14.125 2.5625 14.125C2.41746 14.125 2.27836 14.0592 2.1758 13.9419C2.07324 13.8247 2.01562 13.6658 2.01562 13.5V2.25C2.01562 1.75272 2.18848 1.27581 2.49615 0.924175C2.80383 0.572544 3.22113 0.375 3.65625 0.375H16.7812C16.8531 0.374936 16.9242 0.391047 16.9906 0.422415C17.057 0.453782 17.1173 0.499791 17.1682 0.557813L24.8244 9.30781C24.8752 9.3659 24.9154 9.43485 24.9429 9.51072C24.9703 9.58659 24.9844 9.6679 24.9844 9.75ZM23.1168 9.125L17.3281 2.50781V9.125H23.1168Z" fill="white"/>
</svg>
